<svg width="78" height="40" viewBox="0 0 78 40" fill="none" xmlns="http://www.w3.org/2000/svg">
<g clip-path="url(#clip0_77_1158)">
<path d="M75.8238 29.2487L78.0001 38.3479C75.7367 39.4105 73.1947 40 70.5135 40H62.7396C60.6503 40 58.6481 39.643 56.7938 38.9871V30.2532H43.9099C44.7717 29.5641 45.5813 28.9083 46.3387 28.269C47.601 27.2063 48.7327 26.2184 49.7251 25.2719C54.7046 20.5563 56.4804 17.1274 56.4804 13.0594C56.4804 9.31508 55.0005 5.86136 52.415 3.42882C55.2878 1.35327 58.8657 0.116241 62.7483 0.116241H70.5135C73.1947 0.116241 75.7367 0.705698 78.0001 1.76838L75.8238 10.8676C74.7791 10.4608 72.8639 10.1287 71.8628 10.1287H64.4894C61.1726 10.1287 58.474 12.7024 58.474 15.8655V24.2424C58.474 27.4139 61.1726 29.9876 64.4981 29.9876H71.8628C72.8639 29.9876 74.7791 29.6555 75.8238 29.2487Z" fill="white"/>
<path d="M40.5583 9.85471C40.4973 9.85471 40.4364 9.85471 40.3754 9.86301C38.4429 10.0457 36.9281 10.2532 35.3263 10.5521C33.6288 10.8676 31.8442 11.2827 29.3893 11.8971L27.065 2.52387C29.1107 2.05895 30.6254 1.71025 31.8877 1.43628C29.7462 0.514736 27.3696 0 24.8625 0H17.0799C7.6433 0 0 7.28933 0 16.2889V23.7028C0 32.7024 7.65201 40 17.0799 40H24.8625C25.3761 40 25.881 39.9751 26.3772 39.9336V31.017C34.1772 24.8485 38.6866 21.2287 41.2634 18.8128C41.5071 18.5803 41.7422 18.3645 41.9424 18.1569C44.2667 15.8655 44.6498 14.7281 44.6498 13.2337C44.6498 11.3906 43.0393 9.70527 40.5583 9.85471ZM26.9518 24.2507C26.9518 27.4222 24.2618 29.9875 20.9364 29.9875H17.402C14.0766 29.9875 11.3866 27.4222 11.3866 24.2507V15.741C11.3866 12.5778 14.0766 10.0125 17.3933 10.0125H20.9364C24.2618 10.0125 26.9518 12.5778 26.9518 15.7493V24.2507Z" fill="white"/>
</g>
<defs>
<clipPath id="clip0_77_1158">
<rect width="78" height="40" fill="white"/>
</clipPath>
</defs>
</svg>
