<?xml version="1.0" encoding="UTF-8"?><svg id="_лой_1" xmlns="http://www.w3.org/2000/svg" xmlns:xlink="http://www.w3.org/1999/xlink" viewBox="0 0 128 128"><defs><style>.cls-1{fill:#fff;}.cls-2{fill:#a6ce39;}.cls-3{clip-path:url(#clippath);}.cls-4{fill:none;}.cls-5{fill:#004a8f;}</style><clipPath id="clippath"><rect class="cls-4" x="13.71" y="36.64" width="100.18" height="54.08"/></clipPath></defs><rect class="cls-1" width="128" height="128" rx="20.01" ry="20.01"/><g class="cls-3"><g><path class="cls-2" d="M45.64,36.86h-10c-12.12,0-21.94,9.82-21.94,21.94v9.98c0,12.12,9.83,21.95,21.94,21.95h10c12.11,0,21.94-9.83,21.94-21.95v-9.98c0-12.12-9.82-21.94-21.94-21.94Zm2.68,32.66c0,4.26-3.46,7.73-7.73,7.73h-4.55c-4.26,0-7.73-3.46-7.73-7.73v-11.47c0-4.26,3.46-7.72,7.72-7.72h4.56c4.26,0,7.73,3.46,7.73,7.73v11.46Z"/><path class="cls-5" d="M111.1,76.25l2.8,12.25c-2.91,1.43-6.17,2.23-9.62,2.23h-9.98c-12.12,0-21.94-9.82-21.94-21.94v-9.83c0-12.12,9.83-21.95,21.95-21.95h9.97c3.44,0,6.71,.79,9.62,2.23l-2.8,12.25c-1.34-.55-3.8-1-5.09-1h-9.47c-4.27,0-7.73,3.47-7.73,7.73v11.27c0,4.27,3.47,7.74,7.74,7.74h9.46c1.29,0,3.75-.45,5.09-1h0Z"/><path class="cls-5" d="M77.58,70.44h-10v9.12h10v-9.12Z"/><path class="cls-2" d="M77.56,48.77h-18.48v13.42h18.48v-13.42Z"/><path class="cls-1" d="M47.59,90.73v-12.1c21.4-17.74,23.47-19.81,23.47-23.95,0-2.55-2.16-4.86-5.49-4.54-5.11,.51-7.97,1.14-14.11,2.73l-3-12.62c8.89-2.14,9.96-2.37,17.34-3.4,12.22-1.7,20.45,7.08,20.45,17.59,0,7.25-3.98,12.97-16.16,23.16h16.55v13.13H47.59Z"/></g></g></svg>